<svg width="929" height="201" viewBox="0 0 929 201" fill="none" xmlns="http://www.w3.org/2000/svg">
<g filter="url(#filter0_di_72_5)">
<path d="M127.128 10.8H168.6V190H127.128V10.8ZM45.72 190H4.248V10.8H45.72V190ZM130.2 116.528H42.648V81.456H130.2V116.528ZM250.934 192.048C239.499 192.048 229.259 189.829 220.214 185.392C211.339 180.955 204.427 174.213 199.478 165.168C194.529 155.952 192.054 144.261 192.054 130.096V52.272H231.99V124.208C231.99 135.643 234.379 144.091 239.158 149.552C244.107 154.843 251.019 157.488 259.894 157.488C266.038 157.488 271.499 156.208 276.278 153.648C281.057 150.917 284.811 146.821 287.542 141.36C290.273 135.728 291.638 128.731 291.638 120.368V52.272H331.574V190H293.686V152.112L300.598 163.12C295.99 172.677 289.163 179.931 280.118 184.88C271.243 189.659 261.515 192.048 250.934 192.048ZM412.348 192.048C399.377 192.048 387.687 189.147 377.276 183.344C366.865 177.371 358.588 169.093 352.444 158.512C346.471 147.931 343.484 135.472 343.484 121.136C343.484 106.629 346.471 94.0853 352.444 83.504C358.588 72.9227 366.865 64.7307 377.276 58.928C387.687 53.1253 399.377 50.224 412.348 50.224C423.953 50.224 434.108 52.784 442.812 57.904C451.516 63.024 458.257 70.7893 463.036 81.2C467.815 91.6107 470.204 104.923 470.204 121.136C470.204 137.179 467.9 150.491 463.292 161.072C458.684 171.483 452.028 179.248 443.324 184.368C434.791 189.488 424.465 192.048 412.348 192.048ZM419.26 159.28C425.745 159.28 431.633 157.744 436.924 154.672C442.215 151.6 446.396 147.248 449.468 141.616C452.711 135.813 454.332 128.987 454.332 121.136C454.332 113.115 452.711 106.288 449.468 100.656C446.396 95.024 442.215 90.672 436.924 87.6C431.633 84.528 425.745 82.992 419.26 82.992C412.604 82.992 406.631 84.528 401.34 87.6C396.049 90.672 391.783 95.024 388.54 100.656C385.468 106.288 383.932 113.115 383.932 121.136C383.932 128.987 385.468 135.813 388.54 141.616C391.783 147.248 396.049 151.6 401.34 154.672C406.631 157.744 412.604 159.28 419.26 159.28ZM455.356 190V161.84L456.124 120.88L453.564 80.176V0.0479889H493.5V190H455.356ZM574.238 192.048C561.267 192.048 549.577 189.147 539.166 183.344C528.755 177.371 520.478 169.093 514.334 158.512C508.361 147.931 505.374 135.472 505.374 121.136C505.374 106.629 508.361 94.0853 514.334 83.504C520.478 72.9227 528.755 64.7307 539.166 58.928C549.577 53.1253 561.267 50.224 574.238 50.224C585.843 50.224 595.998 52.784 604.702 57.904C613.406 63.024 620.147 70.7893 624.926 81.2C629.705 91.6107 632.094 104.923 632.094 121.136C632.094 137.179 629.79 150.491 625.182 161.072C620.574 171.483 613.918 179.248 605.214 184.368C596.681 189.488 586.355 192.048 574.238 192.048ZM581.15 159.28C587.635 159.28 593.523 157.744 598.814 154.672C604.105 151.6 608.286 147.248 611.358 141.616C614.601 135.813 616.222 128.987 616.222 121.136C616.222 113.115 614.601 106.288 611.358 100.656C608.286 95.024 604.105 90.672 598.814 87.6C593.523 84.528 587.635 82.992 581.15 82.992C574.494 82.992 568.521 84.528 563.23 87.6C557.939 90.672 553.673 95.024 550.43 100.656C547.358 106.288 545.822 113.115 545.822 121.136C545.822 128.987 547.358 135.813 550.43 141.616C553.673 147.248 557.939 151.6 563.23 154.672C568.521 157.744 574.494 159.28 581.15 159.28ZM617.246 190V161.84L618.014 120.88L615.454 80.176V0.0479889H655.39V190H617.246ZM676.992 190V0.0479889H716.928V190H676.992ZM806.984 192.048C791.283 192.048 777.459 188.976 765.512 182.832C753.736 176.688 744.605 168.325 738.12 157.744C731.635 146.992 728.392 134.789 728.392 121.136C728.392 107.312 731.549 95.1093 737.864 84.528C744.349 73.776 753.139 65.4133 764.232 59.44C775.325 53.296 787.869 50.224 801.864 50.224C815.347 50.224 827.464 53.1253 838.216 58.928C849.139 64.56 857.757 72.752 864.072 83.504C870.387 94.0853 873.544 106.8 873.544 121.648C873.544 123.184 873.459 124.976 873.288 127.024C873.117 128.901 872.947 130.693 872.776 132.4H760.904V109.104H851.784L836.424 116.016C836.424 108.848 834.973 102.619 832.072 97.328C829.171 92.0373 825.16 87.9413 820.04 85.04C814.92 81.968 808.947 80.432 802.12 80.432C795.293 80.432 789.235 81.968 783.944 85.04C778.824 87.9413 774.813 92.1227 771.912 97.584C769.011 102.875 767.56 109.189 767.56 116.528V122.672C767.56 130.181 769.181 136.837 772.424 142.64C775.837 148.272 780.531 152.624 786.504 155.696C792.648 158.597 799.816 160.048 808.008 160.048C815.347 160.048 821.747 158.939 827.208 156.72C832.84 154.501 837.96 151.173 842.568 146.736L863.816 169.776C857.501 176.944 849.565 182.491 840.008 186.416C830.451 190.171 819.443 192.048 806.984 192.048ZM899.876 192.048C893.049 192.048 887.161 189.744 882.212 185.136C877.433 180.357 875.044 174.299 875.044 166.96C875.044 159.621 877.433 153.733 882.212 149.296C887.161 144.688 893.049 142.384 899.876 142.384C906.873 142.384 912.761 144.688 917.54 149.296C922.319 153.733 924.708 159.621 924.708 166.96C924.708 174.299 922.319 180.357 917.54 185.136C912.761 189.744 906.873 192.048 899.876 192.048Z" fill="url(#paint0_linear_72_5)" shape-rendering="crispEdges"/>
</g>
<defs>
<filter id="filter0_di_72_5" x="0.248047" y="0.0479736" width="928.46" height="200" filterUnits="userSpaceOnUse" color-interpolation-filters="sRGB">
<feFlood flood-opacity="0" result="BackgroundImageFix"/>
<feColorMatrix in="SourceAlpha" type="matrix" values="0 0 0 0 0 0 0 0 0 0 0 0 0 0 0 0 0 0 127 0" result="hardAlpha"/>
<feOffset dy="4"/>
<feGaussianBlur stdDeviation="2"/>
<feComposite in2="hardAlpha" operator="out"/>
<feColorMatrix type="matrix" values="0 0 0 0 0 0 0 0 0 0 0 0 0 0 0 0 0 0 0.25 0"/>
<feBlend mode="normal" in2="BackgroundImageFix" result="effect1_dropShadow_72_5"/>
<feBlend mode="normal" in="SourceGraphic" in2="effect1_dropShadow_72_5" result="shape"/>
<feColorMatrix in="SourceAlpha" type="matrix" values="0 0 0 0 0 0 0 0 0 0 0 0 0 0 0 0 0 0 127 0" result="hardAlpha"/>
<feOffset dx="5"/>
<feComposite in2="hardAlpha" operator="arithmetic" k2="-1" k3="1"/>
<feColorMatrix type="matrix" values="0 0 0 0 0.120833 0 0 0 0 0.120833 0 0 0 0 0.120833 0 0 0 0.25 0"/>
<feBlend mode="normal" in2="shape" result="effect2_innerShadow_72_5"/>
</filter>
<linearGradient id="paint0_linear_72_5" x1="111.5" y1="-46" x2="683" y2="155.5" gradientUnits="userSpaceOnUse">
<stop stop-color="#E4E4E4"/>
<stop offset="0.445" stop-color="#ADADAD"/>
<stop offset="0.675" stop-color="#999999"/>
<stop offset="1" stop-color="#F7F7F7" stop-opacity="0.85"/>
</linearGradient>
</defs>
</svg>
